<svg xmlns="http://www.w3.org/2000/svg" width="446" height="307" viewBox="0 0 446 307"><g transform="translate(-1132 -286)"><g transform="translate(1132 286)" fill="none" stroke="#000" stroke-width="16"><rect width="446" height="307" rx="10" stroke="none"/><rect x="8" y="8" width="430" height="291" rx="2" fill="none"/></g><g transform="translate(1159 316)" fill="none" stroke="#000" stroke-width="16"><rect width="147" height="147" stroke="none"/><rect x="8" y="8" width="131" height="131" fill="none"/></g><g transform="translate(1159 477)" fill="none" stroke="#000" stroke-width="16"><rect width="147" height="90" stroke="none"/><rect x="8" y="8" width="131" height="74" fill="none"/></g><g transform="translate(1329 316)" fill="none" stroke="#000" stroke-width="16"><rect width="147" height="81" stroke="none"/><rect x="8" y="8" width="131" height="65" fill="none"/></g><g transform="translate(1329 418)" fill="none" stroke="#000" stroke-width="16"><rect width="223" height="45" stroke="none"/><rect x="8" y="8" width="207" height="29" fill="none"/></g><g transform="translate(1329 477)" fill="none" stroke="#000" stroke-width="16"><rect width="223" height="47" stroke="none"/><rect x="8" y="8" width="207" height="31" fill="none"/></g><g transform="translate(1329 537)" fill="none" stroke="#000" stroke-width="16"><rect width="66" height="30" stroke="none"/><rect x="8" y="8" width="50" height="14" fill="none"/></g><g transform="translate(1408 537)" fill="none" stroke="#000" stroke-width="16"><rect width="65" height="30" stroke="none"/><rect x="8" y="8" width="49" height="14" fill="none"/></g><g transform="translate(1486 537)" fill="none" stroke="#000" stroke-width="16"><rect width="66" height="30" stroke="none"/><rect x="8" y="8" width="50" height="14" fill="none"/></g><g transform="translate(1499 316)" fill="none" stroke="#000" stroke-width="16"><rect width="53" height="81" stroke="none"/><rect x="8" y="8" width="37" height="65" fill="none"/></g></g></svg>